<svg class="svg-icon" style="width: 1em; height: 1em;vertical-align: middle;fill: currentColor;overflow: hidden;" viewBox="0 0 1024 1024" version="1.1" xmlns="http://www.w3.org/2000/svg"><path d="M992 679.344l-96 0L896 512.688c0-35.376-28.656-64.032-64-64.032L536 448.656l0-104L624 344.656c17.664 0 32-14.32 32-32l0-128c0-17.664-14.336-32-32-32L400 152.656c-17.664 0-32 14.336-32 32l0 128c0 17.68 14.336 32 32 32l88 0 0 104L192 448.656c-35.344 0-64 28.656-64 64.032l0 166.656L32 679.344c-17.664 0-32 14.32-32 32l0 128c0 17.664 14.336 32 32 32l224 0c17.664 0 32-14.336 32-32l0-128c0-17.68-14.336-32-32-32l-80 0 0-134.656c0-35.344 12.656-48.032 48-48.032l264 0 0 182.688L400 679.344c-17.664 0-32 14.32-32 32l0 128c0 17.664 14.336 32 32 32l224 0c17.664 0 32-14.336 32-32l0-128c0-17.68-14.336-32-32-32l-88 0L536 496.656 800 496.656c35.344 0 48 12.688 48 48.032l0 134.656-80 0c-17.664 0-32 14.32-32 32l0 128c0 17.664 14.336 32 32 32l224 0c17.664 0 32-14.336 32-32l0-128C1024 693.664 1009.664 679.344 992 679.344z"  /></svg>