<svg xmlns="http://www.w3.org/2000/svg" width="32" height="32" viewBox="0 0 475.851 475.851">
	<path d="M151.549,145.274c0,23.39,9.145,50.385,24.462,72.214c17.389,24.78,39.376,38.427,61.911,38.427
		c22.534,0,44.521-13.647,61.91-38.428c15.317-21.828,24.462-48.824,24.462-72.213c0-47.626-38.746-86.372-86.372-86.372
		C190.296,58.902,151.549,97.648,151.549,145.274z M237.922,73.902c39.354,0,71.372,32.018,71.372,71.372
		c0,20.118-8.33,44.487-21.74,63.598c-14.29,20.364-32.38,32.043-49.632,32.043c-17.252,0-35.342-11.679-49.632-32.043
		c-13.41-19.11-21.741-43.479-21.741-63.598C166.549,105.919,198.567,73.902,237.922,73.902z"/>
	<path d="M302.372,239.167c-2.862-1.363-6.273-0.778-8.52,1.461c-16.775,16.728-36.117,25.569-55.935,25.569
		c-19.821,0-39.158-8.841-55.923-25.567c-2.246-2.241-5.659-2.826-8.521-1.463c-25.254,12.022-46.628,30.829-61.811,54.388
		c-15.596,24.2-23.84,52.277-23.84,81.195v0.121c0,2.116,0.894,4.134,2.461,5.556c40.492,36.722,92.922,56.945,147.633,56.945
		s107.141-20.224,147.632-56.945c1.568-1.422,2.462-3.439,2.462-5.556v-0.121c0-28.918-8.242-56.995-23.834-81.194
		C348.997,269.995,327.625,251.188,302.372,239.167z M237.918,422.372c-49.861,0-97.685-18.023-135.057-50.827
		c0.583-24.896,7.956-48.986,21.411-69.865c12.741-19.77,30.322-35.823,51.058-46.676c18.746,17.157,40.285,26.193,62.588,26.193
		c22.3,0,43.842-9.035,62.598-26.193c20.734,10.853,38.313,26.906,51.053,46.676c13.452,20.877,20.823,44.968,21.406,69.865
		C335.602,404.349,287.778,422.372,237.918,422.372z"/>
</svg>
